<svg preserveAspectRatio="none" overflow="visible" style="display: block;" width="22" height="22" viewBox="0 0 22 22" fill="none" xmlns="http://www.w3.org/2000/svg">
<g id="Frame">
<path id="Vector" d="M17.4167 10.0833H4.58333C3.57081 10.0833 2.75 10.9041 2.75 11.9167V18.3333C2.75 19.3459 3.57081 20.1667 4.58333 20.1667H17.4167C18.4292 20.1667 19.25 19.3459 19.25 18.3333V11.9167C19.25 10.9041 18.4292 10.0833 17.4167 10.0833Z" stroke="#7A8C7C" stroke-width="2" stroke-linecap="round" stroke-linejoin="round"/>
<path id="Vector_2" d="M6.41667 10.0833V6.41667C6.41667 5.20109 6.89955 4.0353 7.75909 3.17576C8.61864 2.31622 9.78442 1.83333 11 1.83333C12.2156 1.83333 13.3814 2.31622 14.2409 3.17576C15.1004 4.0353 15.5833 5.20109 15.5833 6.41667V10.0833" stroke="#7A8C7C" stroke-width="2" stroke-linecap="round" stroke-linejoin="round"/>
</g>
</svg>
